<?xml version="1.0" standalone="no"?>
<!DOCTYPE svg PUBLIC "-//W3C//DTD SVG 20010904//EN"
 "http://www.w3.org/TR/2001/REC-SVG-20010904/DTD/svg10.dtd">
<svg version="1.0" xmlns="http://www.w3.org/2000/svg"
 width="1024.000000pt" height="1024.000000pt" viewBox="0 0 1024.000000 1024.000000"
 preserveAspectRatio="xMidYMid meet">

<g transform="translate(0.000000,1024.000000) scale(0.100000,-0.100000)"
fill="#000000" stroke="none">
<path d="M525 8830 c44 -7 41 -8 -32 -7 -45 1 -85 -2 -89 -6 -9 -9 -12 -5367
-3 -5367 15 0 19 528 19 2843 l0 2497 4705 0 4705 0 1 -2542 c1 -1399 5 -2604
8 -2678 8 -134 16 2236 15 4208 -1 1161 8 1056 -87 1057 -1009 2 -4083 -10
-4062 -15 17 -4 -503 -7 -1155 -7 -652 1 -1122 4 -1045 7 122 4 131 6 75 11
-94 10 -3115 8 -3055 -1z m6142 -16 c-3 -3 -12 -4 -19 -1 -8 3 -5 6 6 6 11 1
17 -2 13 -5z m156 -1 c-24 -2 -62 -2 -85 0 -24 2 -5 4 42 4 47 0 66 -2 43 -4z
m100 0 c-7 -2 -21 -2 -30 0 -10 3 -4 5 12 5 17 0 24 -2 18 -5z m330 0 c-57 -2
-149 -2 -205 0 -57 1 -11 3 102 3 113 0 159 -2 103 -3z m140 0 c-7 -2 -19 -2
-25 0 -7 3 -2 5 12 5 14 0 19 -2 13 -5z m65 0 c-10 -2 -26 -2 -35 0 -10 3 -2
5 17 5 19 0 27 -2 18 -5z"/>
<path d="M4243 8823 c9 -2 23 -2 30 0 6 3 -1 5 -18 5 -16 0 -22 -2 -12 -5z"/>
<path d="M4338 8823 c18 -2 45 -2 60 0 15 2 0 4 -33 4 -33 0 -45 -2 -27 -4z"/>
<path d="M4518 8823 c45 -2 119 -2 165 0 45 1 8 3 -83 3 -91 0 -128 -2 -82 -3z"/>
<path d="M6280 8329 c0 -5 7 -9 15 -9 18 0 19 -12 4 -27 -13 -13 22 -53 45
-53 8 0 18 -5 22 -12 5 -8 0 -9 -17 -3 -63 20 -258 33 -369 25 -121 -9 -277
-46 -341 -80 -20 -11 -46 -20 -57 -20 -11 0 -27 -6 -34 -12 -20 -18 -77 -48
-93 -48 -7 0 -18 -7 -25 -15 -12 -15 -130 -75 -146 -75 -5 0 -23 -12 -39 -28
-37 -32 -53 -43 -122 -78 -29 -14 -57 -32 -64 -40 -6 -8 -18 -14 -25 -14 -8 0
-14 -4 -14 -10 0 -5 -6 -10 -13 -10 -7 0 -27 -13 -45 -30 -18 -16 -36 -30 -39
-30 -13 0 -52 -38 -45 -45 4 -4 -3 -5 -15 -2 -26 6 -32 -10 -8 -20 9 -3 23 1
33 9 21 18 178 103 327 176 544 269 813 325 1187 248 60 -12 53 -13 -127 -12
-202 1 -390 -21 -452 -52 -30 -16 -66 -30 -113 -46 -63 -21 -241 -112 -233
-120 4 -3 -6 -6 -21 -6 -16 0 -25 -4 -21 -10 3 -5 -2 -10 -12 -10 -10 -1 -29
-7 -43 -15 -34 -19 -2 -20 42 -1 18 8 51 22 72 31 53 23 257 92 331 111 102
27 236 44 335 42 l95 -1 -110 -7 c-98 -6 -244 -30 -285 -47 -8 -3 -20 -7 -26
-8 -77 -17 -349 -117 -369 -136 -5 -5 -15 -9 -22 -9 -21 0 -113 -44 -113 -54
0 -4 8 -5 18 -1 119 47 443 143 577 171 208 44 454 40 630 -11 149 -43 326
-158 396 -257 12 -16 -13 4 -56 46 -123 121 -293 200 -453 213 -76 6 -82 4
-111 -19 -16 -14 -27 -29 -24 -32 4 -3 -2 -6 -13 -7 -10 0 18 -11 62 -24 158
-47 275 -116 372 -220 110 -117 147 -244 123 -417 -14 -99 -73 -293 -97 -318
-18 -19 -18 -3 1 34 8 15 12 33 9 38 -4 6 -2 13 4 17 29 18 45 525 16 514 -6
-2 -14 5 -17 16 -3 15 -1 18 11 13 19 -7 -33 60 -99 126 -52 53 -164 126 -179
117 -5 -3 -20 1 -32 9 -12 9 -35 16 -50 16 -15 0 -38 5 -52 11 -31 14 -57 -2
-49 -30 6 -22 -8 -27 -143 -42 -54 -6 -103 -14 -109 -17 -5 -4 -19 -5 -30 -4
-14 2 -10 -3 13 -17 18 -12 35 -21 38 -21 17 0 125 -89 162 -133 48 -59 71
-102 88 -167 l11 -45 184 -5 184 -5 3 -1779 c1 -1306 -1 -1782 -9 -1792 -16
-19 -3138 -21 -3157 -2 -8 8 -12 59 -12 166 0 120 -3 152 -12 146 -10 -6 -10
-4 0 7 8 9 12 49 12 125 l0 112 -51 -18 c-28 -11 -61 -25 -73 -33 -22 -15 -86
-161 -86 -198 0 -11 -11 -24 -25 -31 -15 -6 -25 -20 -26 -32 0 -19 -1 -20 -8
-2 -12 30 7 145 30 182 17 27 18 34 6 34 -11 0 -14 8 -12 28 2 15 -4 42 -12
60 -13 26 -15 53 -10 128 7 98 18 134 42 134 8 0 18 7 23 17 7 11 27 18 64 21
47 4 61 0 96 -22 l42 -26 0 404 0 404 -85 7 c-243 21 -544 -76 -933 -299 -262
-150 -475 -349 -537 -503 -28 -72 -50 -226 -35 -254 14 -25 13 -29 -10 -29
-21 0 -28 -16 -10 -22 5 -1 13 -31 16 -64 7 -67 3 -75 -46 -78 -21 -2 -26 2
-22 13 3 9 1 12 -6 7 -15 -9 -15 -21 1 -38 6 -7 32 -37 57 -67 25 -30 117
-121 205 -203 l160 -148 2685 0 2685 0 38 59 c30 47 57 71 140 126 412 276
583 478 663 780 35 133 40 367 10 485 -70 273 -199 439 -496 636 -232 154
-359 200 -590 211 -141 7 -351 -28 -495 -83 -8 -4 12 36 44 89 213 338 317
654 328 997 6 183 -7 281 -54 420 -40 120 -149 334 -213 418 -168 222 -386
388 -625 474 -112 41 -135 47 -135 37z m135 -119 c3 -5 -1 -10 -9 -10 -8 0
-18 5 -21 10 -3 6 1 10 9 10 8 0 18 -4 21 -10z m-48 -186 c-3 -3 -12 -4 -19
-1 -8 3 -5 6 6 6 11 1 17 -2 13 -5z m680 -526 c-3 -8 -6 -5 -6 6 -1 11 2 17 5
13 3 -3 4 -12 1 -19z m500 -3164 c-4 -4 -37 -8 -74 -10 -62 -3 -300 -53 -348
-74 -50 -22 -249 -81 -290 -86 -24 -4 -42 -11 -39 -15 3 -5 -2 -9 -10 -9 -9 0
-16 4 -16 9 0 12 46 41 64 41 9 0 13 6 10 14 -4 9 6 16 30 20 20 4 42 16 50
27 7 11 20 19 27 18 8 -2 27 0 43 5 22 5 26 10 16 16 -14 9 46 30 88 30 12 0
22 5 22 10 0 6 79 10 217 10 119 0 213 -3 210 -6z m-5499 -163 c3 -8 -1 -12
-9 -9 -7 2 -15 10 -17 17 -3 8 1 12 9 9 7 -2 15 -10 17 -17z m56 -22 c-2 -3
18 -28 44 -53 38 -39 52 -46 74 -42 27 5 45 -15 32 -36 -3 -5 2 -19 13 -30 18
-21 18 -21 -5 -15 -20 5 -22 3 -10 -11 7 -9 30 -34 51 -55 22 -21 37 -40 35
-42 -6 -6 -166 131 -193 165 -11 14 -36 43 -57 64 -40 41 -45 52 -27 58 18 6
48 4 43 -3z m1173 -211 c-3 -7 -5 -2 -5 12 0 14 2 19 5 13 2 -7 2 -19 0 -25z
m-877 -108 c0 -5 -5 -10 -11 -10 -5 0 -7 5 -4 10 3 6 8 10 11 10 2 0 4 -4 4
-10z"/>
<path d="M6298 7933 c7 -3 16 -2 19 1 4 3 -2 6 -13 5 -11 0 -14 -3 -6 -6z"/>
<path d="M5255 7790 c-8 -13 5 -13 25 0 13 8 13 10 -2 10 -9 0 -20 -4 -23 -10z"/>
<path d="M5270 7755 c-11 -13 -8 -13 19 -4 35 12 40 19 12 19 -10 0 -24 -7
-31 -15z"/>
<path d="M4817 7679 c-9 -6 -17 -8 -17 -4 0 3 -9 -4 -20 -15 -30 -30 -24 -32
18 -8 46 27 46 27 41 32 -2 3 -12 0 -22 -5z"/>
<path d="M4727 7633 c-12 -12 -7 -22 8 -17 8 4 15 10 15 15 0 11 -14 12 -23 2z"/>
<path d="M5785 7620 c-195 -10 -183 -8 -165 -20 8 -5 43 -19 77 -30 105 -36
209 -110 271 -194 l36 -49 145 7 c143 7 165 10 145 24 -6 4 -16 22 -23 40 -8
18 -27 49 -43 70 -16 20 -25 38 -19 40 6 2 -11 25 -39 52 -38 36 -55 47 -72
42 -15 -3 -19 -2 -14 7 6 8 0 10 -21 5 -58 -13 -103 -13 -103 2 0 8 -6 13 -12
12 -7 -1 -80 -5 -163 -8z"/>
<path d="M4668 7583 c7 -3 16 -2 19 1 4 3 -2 6 -13 5 -11 0 -14 -3 -6 -6z"/>
<path d="M5340 7424 c-120 -15 -231 -37 -251 -50 -8 -5 -48 -14 -89 -20 -60
-9 26 -11 440 -11 283 1 489 2 458 4 -32 2 -58 8 -58 12 0 14 -65 35 -145 48
-16 3 -35 9 -40 13 -18 15 -208 18 -315 4z"/>
<path d="M3985 7379 c-33 -4 -96 -14 -140 -22 l-80 -13 117 -8 c123 -8 148 -3
168 34 6 11 7 19 3 19 -4 -1 -35 -5 -68 -10z"/>
<path d="M4288 7343 c6 -2 18 -2 25 0 6 3 1 5 -13 5 -14 0 -19 -2 -12 -5z"/>
<path d="M3520 7238 c0 -13 -44 -38 -67 -38 -7 0 -13 -4 -13 -8 0 -5 -10 -14
-22 -21 -71 -37 -158 -101 -158 -115 0 -6 5 -4 10 4 5 8 10 11 10 5 0 -7 3 -7
8 0 7 10 72 47 72 41 0 -2 -24 -22 -52 -44 -58 -45 -91 -74 -126 -113 l-22
-26 35 -59 c22 -36 56 -75 88 -99 28 -22 73 -62 99 -89 l47 -48 48 7 c26 5 51
8 56 7 4 -1 7 36 7 83 0 70 -3 85 -15 85 -22 0 -95 38 -123 64 -29 26 -52 68
-52 96 0 48 50 117 135 186 39 32 55 52 55 70 0 13 -4 24 -10 24 -5 0 -10 -6
-10 -12z m-70 -88 c-8 -5 -19 -10 -25 -10 -5 0 -3 5 5 10 8 5 20 10 25 10 6 0
3 -5 -5 -10z"/>
<path d="M3497 7138 c-19 -18 -32 -39 -30 -45 3 -7 0 -13 -6 -13 -19 0 -51
-34 -51 -55 0 -15 -3 -16 -9 -7 -7 11 -9 11 -13 0 -10 -25 1 -91 16 -100 8 -4
38 -28 67 -53 29 -25 56 -45 61 -45 4 0 8 79 8 175 0 96 -2 175 -4 175 -3 0
-20 -15 -39 -32z"/>
<path d="M2940 6795 c-7 -8 -25 -15 -40 -15 -45 0 -58 -9 -53 -34 7 -35 37
-45 158 -48 123 -4 173 -21 238 -78 36 -32 38 -32 87 -20 27 7 50 16 50 22 0
12 -41 47 -56 48 -6 0 -27 11 -47 24 -19 13 -50 27 -68 31 -48 9 -186 55 -218
71 -33 17 -36 17 -51 -1z"/>
<path d="M3880 6770 c10 -6 11 -10 3 -10 -7 0 -13 -5 -13 -11 0 -8 5 -8 15 1
16 13 11 30 -8 30 -7 0 -6 -4 3 -10z"/>
<path d="M4061 6757 c-1 -12 -6 -16 -13 -11 -10 5 -10 4 -1 -6 16 -17 26 -8
20 17 -4 17 -5 17 -6 0z"/>
<path d="M3920 6750 c0 -4 14 -6 31 -4 17 2 39 -1 49 -6 13 -7 19 -6 23 4 4
10 -7 14 -49 14 -30 0 -54 -4 -54 -8z"/>
<path d="M6185 6750 c-3 -5 -1 -10 4 -10 6 0 11 5 11 10 0 6 -2 10 -4 10 -3 0
-8 -4 -11 -10z"/>
<path d="M2529 6631 c-29 -23 -24 -30 27 -38 22 -3 54 -19 72 -35 22 -19 40
-27 55 -23 188 41 230 46 323 42 55 -2 118 -10 141 -17 37 -11 46 -10 68 4
l25 17 -26 24 c-44 41 -92 48 -188 30 -63 -11 -96 -13 -135 -5 -28 5 -116 12
-194 15 -133 6 -145 5 -168 -14z"/>
<path d="M2910 6564 c-14 -3 -67 -12 -118 -20 -51 -9 -94 -20 -97 -24 -3 -4
10 -13 28 -20 77 -29 104 -39 142 -55 l40 -16 -35 6 c-111 18 -121 18 -114 1
3 -9 13 -16 21 -16 8 0 26 -13 40 -30 13 -16 33 -30 43 -30 10 0 20 -9 23 -20
3 -10 21 -27 41 -37 30 -14 36 -22 36 -47 0 -48 11 -58 57 -50 60 9 64 14 52
59 -23 81 3 183 61 242 l29 30 -27 13 c-28 13 -177 22 -222 14z"/>
<path d="M5807 6551 c-15 -10 -29 -20 -31 -22 -2 -2 29 -4 70 -4 41 0 74 1 74
2 0 3 -72 43 -78 42 -4 0 -19 -8 -35 -18z"/>
<path d="M5386 6552 c-3 -6 -1 -12 6 -14 8 -3 12 -22 10 -56 -2 -46 0 -52 18
-52 17 0 20 7 20 50 0 37 -4 50 -15 50 -7 0 -18 7 -23 16 -6 10 -12 13 -16 6z"/>
<path d="M4843 6535 c-49 -21 -46 -58 7 -85 49 -25 65 -25 90 0 29 29 26 50
-9 50 -22 0 -30 6 -35 25 -7 29 -10 29 -53 10z m27 -29 c0 -8 -7 -17 -16 -20
-23 -9 -24 -8 -24 14 0 13 7 20 20 20 11 0 20 -6 20 -14z"/>
<path d="M5313 6540 c-17 -7 -23 -17 -23 -42 0 -27 5 -36 30 -47 42 -18 60 -9
60 33 0 64 -15 77 -67 56z m37 -46 c0 -7 -9 -12 -20 -11 -12 1 -20 8 -20 18 0
12 6 16 20 12 11 -3 20 -11 20 -19z"/>
<path d="M3888 6529 c-24 -14 -23 -54 3 -80 23 -23 89 -24 97 0 3 9 0 11 -7 7
-17 -11 -61 21 -61 44 0 11 6 20 13 20 8 0 7 4 -3 10 -18 12 -21 12 -42 -1z"/>
<path d="M4355 6530 c-16 -7 -14 -9 17 -9 31 -1 35 -4 31 -21 -7 -25 -50 -27
-56 -2 -3 10 -5 6 -6 -10 -1 -19 4 -28 14 -28 8 0 15 -7 15 -15 0 -12 13 -15
60 -15 l60 0 0 50 c0 45 -2 50 -22 50 -13 0 -39 2 -58 5 -19 2 -44 0 -55 -5z"/>
<path d="M6253 6504 c-4 -11 1 -22 12 -31 16 -11 20 -11 28 2 5 10 4 21 -3 31
-16 19 -29 18 -37 -2z"/>
<path d="M2650 6468 c0 -4 7 -8 15 -8 8 0 15 -4 15 -10 0 -5 14 -10 30 -10 22
0 30 5 30 18 0 13 -9 17 -45 18 -25 0 -45 -3 -45 -8z"/>
<path d="M5835 6440 c-15 -6 -7 -9 30 -9 36 -1 46 2 35 9 -18 12 -38 12 -65 0z"/>
<path d="M5325 6350 c-3 -5 -1 -10 4 -10 6 0 11 5 11 10 0 6 -2 10 -4 10 -3 0
-8 -4 -11 -10z"/>
<path d="M5333 6153 c-7 -2 -13 -9 -13 -14 0 -14 26 -10 40 6 10 12 10 15 -1
14 -8 0 -20 -3 -26 -6z"/>
<path d="M5380 6143 c0 -5 9 -19 19 -33 22 -28 13 -59 -17 -61 -9 0 -12 -3 -5
-5 20 -9 53 16 53 39 0 25 -26 67 -41 67 -5 0 -9 -3 -9 -7z"/>
<path d="M5790 6123 c-22 -28 -21 -63 2 -91 9 -10 13 -10 19 0 5 7 1 20 -8 30
-13 15 -14 23 -5 44 10 20 18 25 44 22 17 -2 35 -10 41 -19 15 -24 0 -67 -25
-71 -24 -3 -38 -28 -15 -28 29 0 67 40 67 71 0 65 -80 93 -120 42z"/>
<path d="M3518 6112 c-2 -18 -1 -35 3 -38 13 -8 18 12 10 42 l-8 29 -5 -33z"/>
<path d="M3873 6124 c-2 -6 -3 -33 -1 -60 l3 -49 65 0 65 0 3 58 c2 31 -1 57
-5 58 -51 7 -126 3 -130 -7z m97 -55 c0 -20 -4 -29 -12 -27 -17 6 -18 58 -1
58 8 0 13 -12 13 -31z"/>
<path d="M2353 6067 c-29 -23 -50 -48 -48 -55 3 -7 0 -10 -5 -7 -12 7 -72 -40
-63 -49 4 -3 1 -6 -5 -6 -7 0 -9 -7 -5 -17 5 -12 2 -15 -10 -10 -11 4 -18 -1
-22 -14 -4 -10 -9 -19 -13 -19 -4 0 -7 -16 -8 -35 -1 -40 2 -41 42 -20 16 8
22 15 14 15 -13 0 -13 2 -1 9 9 6 12 18 8 32 -6 23 -5 23 8 5 8 -11 15 -14 15
-8 0 7 9 12 21 12 13 0 18 -4 13 -12 -6 -10 -5 -10 8 0 24 19 41 -8 33 -55
-10 -57 -15 -73 -25 -73 -5 0 -11 8 -13 18 -4 16 -9 -23 -12 -94 -1 -16 -5
-35 -8 -41 -4 -7 -4 -14 1 -17 19 -12 304 53 337 78 15 10 14 15 -10 50 -14
21 -44 73 -65 116 -22 43 -53 100 -70 126 -16 26 -30 55 -30 64 0 9 -8 24 -18
33 -16 14 -21 12 -69 -26z"/>
<path d="M5815 6099 c-4 -6 -4 -13 -1 -16 3 -4 6 -1 6 5 0 7 7 12 15 12 8 0
15 -9 15 -21 0 -11 5 -17 10 -14 6 3 10 15 10 26 0 14 -7 19 -24 19 -14 0 -28
-5 -31 -11z"/>
<path d="M4362 6088 c-7 -7 -12 -27 -12 -45 l0 -33 65 0 c58 0 65 2 65 20 0
23 -31 58 -47 53 -6 -2 -14 1 -18 6 -8 15 -38 14 -53 -1z"/>
<path d="M6592 6059 c2 -6 8 -10 13 -10 5 0 11 4 13 10 2 6 -4 11 -13 11 -9 0
-15 -5 -13 -11z"/>
<path d="M4850 6029 c0 -27 3 -29 39 -29 44 0 53 7 45 36 -4 15 -14 20 -45 20
-37 1 -39 0 -39 -27z"/>
<path d="M5340 6050 c0 -5 5 -10 10 -10 6 0 10 5 10 10 0 6 -4 10 -10 10 -5 0
-10 -4 -10 -10z"/>
<path d="M3520 6028 c0 -8 -18 -22 -40 -32 -22 -10 -40 -21 -40 -25 0 -5 -24
-19 -52 -31 -29 -12 -64 -32 -78 -45 -14 -12 -35 -26 -47 -30 -13 -3 -23 -10
-23 -15 0 -5 -13 -11 -30 -15 -16 -4 -30 -11 -30 -16 0 -5 -21 -28 -47 -51
-25 -24 -59 -55 -74 -70 -15 -16 -30 -28 -34 -28 -9 0 -125 -121 -125 -131 0
-5 -4 -9 -10 -9 -5 0 -10 7 -10 15 0 32 -19 13 -22 -22 -2 -25 -8 -37 -16 -35
-8 1 -11 -2 -7 -8 3 -5 0 -13 -8 -16 -9 -3 -21 -19 -27 -35 -7 -16 -18 -29
-25 -29 -13 0 -28 -35 -25 -58 0 -8 -4 -20 -11 -28 -16 -19 -5 -18 39 5 58 29
238 90 337 113 94 22 324 31 393 16 l32 -7 0 294 c0 185 -4 296 -10 300 -5 3
-10 0 -10 -7z"/>
<path d="M4347 5744 c-12 -12 -8 -62 6 -68 10 -5 10 -7 0 -12 -7 -3 -13 -20
-13 -38 0 -30 3 -33 29 -34 17 0 32 5 35 14 4 11 10 12 25 5 15 -9 20 -7 24
11 4 13 11 19 21 15 12 -5 14 5 13 51 l-2 57 -65 3 c-36 2 -69 0 -73 -4z"/>
<path d="M5778 5739 c-14 -8 -18 -24 -18 -73 0 -40 5 -67 13 -72 6 -5 35 -8
62 -8 92 3 85 -4 85 78 0 58 -3 75 -16 80 -25 10 -107 6 -126 -5z"/>
<path d="M3864 5727 c-3 -8 -4 -41 -2 -73 l3 -59 75 0 75 0 0 70 0 70 -73 3
c-55 2 -74 0 -78 -11z m96 -7 c0 -5 6 -10 14 -10 22 0 29 -47 10 -75 -31 -47
-104 -22 -104 36 0 31 16 47 32 31 7 -7 4 -19 -8 -38 l-18 -29 25 22 25 23 23
-23 c22 -20 23 -21 16 -2 -4 11 -10 28 -12 38 -3 9 -14 17 -24 17 -11 0 -19 5
-19 10 0 6 9 10 20 10 11 0 20 -4 20 -10z"/>
<path d="M5316 5702 c-9 -16 4 -42 23 -43 12 0 12 -2 -4 -9 l-20 -9 20 0 c11
-1 31 -4 45 -8 14 -3 22 -2 18 2 -4 4 2 16 14 27 16 13 19 21 11 29 -15 15
-99 24 -107 11z"/>
<path d="M6280 5690 c0 -5 5 -10 10 -10 6 0 10 5 10 10 0 6 -4 10 -10 10 -5 0
-10 -4 -10 -10z"/>
<path d="M6341 5643 c-33 -29 -43 -60 -15 -49 9 3 22 6 29 6 13 0 32 56 22 66
-2 3 -18 -8 -36 -23z"/>
<path d="M6260 5650 c0 -5 5 -10 10 -10 6 0 10 5 10 10 0 6 -4 10 -10 10 -5 0
-10 -4 -10 -10z"/>
<path d="M2125 5390 c3 -6 1 -10 -4 -10 -6 0 -1 -18 11 -41 11 -22 24 -55 28
-72 4 -19 12 -31 20 -29 7 2 10 -3 7 -12 -3 -8 -3 -16 1 -18 4 -2 17 -23 30
-48 12 -25 36 -61 51 -80 l29 -35 34 18 c18 10 54 33 80 52 26 18 53 35 60 38
10 4 10 8 -2 17 -12 10 -11 11 7 7 31 -7 18 21 -13 29 -13 3 -24 10 -24 15 0
14 -38 11 -42 -3 -5 -13 -12 -8 -63 40 -13 12 -31 22 -40 22 -8 0 -15 4 -15 8
0 5 -18 17 -40 27 -22 10 -37 22 -34 26 3 5 -2 9 -10 9 -9 0 -16 5 -16 10 0 6
-7 10 -15 10 -8 0 -15 4 -15 9 0 5 -7 12 -16 15 -8 3 -12 2 -9 -4z"/>
<path d="M3520 5385 c0 -8 5 -15 10 -15 6 0 10 7 10 15 0 8 -4 15 -10 15 -5 0
-10 -7 -10 -15z"/>
<path d="M2690 5306 c0 -2 7 -7 16 -10 8 -3 12 -2 9 4 -6 10 -25 14 -25 6z"/>
<path d="M2678 5283 c7 -3 16 -2 19 1 4 3 -2 6 -13 5 -11 0 -14 -3 -6 -6z"/>
<path d="M2645 5260 c-3 -5 -12 -7 -19 -4 -7 3 -19 -3 -27 -12 -13 -15 -11
-16 11 -9 24 7 62 35 48 35 -4 0 -9 -4 -13 -10z"/>
<path d="M2515 5190 c-3 -6 1 -7 9 -4 18 7 21 14 7 14 -6 0 -13 -4 -16 -10z"/>
<path d="M3870 5182 c0 -24 37 -39 53 -23 16 16 0 26 -19 10 -14 -11 -15 -10
-12 6 1 10 -3 20 -9 22 -8 3 -13 -4 -13 -15z"/>
<path d="M4237 5184 c-4 -5 -63 -8 -130 -9 -74 0 -122 -4 -122 -10 0 -5 7 -9
15 -7 44 9 60 10 60 3 0 -4 7 -8 15 -8 8 0 15 4 15 8 0 8 23 5 53 -6 9 -4 17
-3 17 2 0 5 9 9 20 9 11 0 20 -3 20 -6 0 -4 18 -7 40 -7 29 0 40 3 40 14 0 9
-6 13 -14 10 -8 -3 -16 -1 -18 4 -2 6 -7 7 -11 3z"/>
<path d="M4305 5176 c-19 -14 -19 -15 -2 -22 22 -8 30 -1 25 21 -3 14 -5 14
-23 1z"/>
<path d="M3945 5171 c-3 -5 -2 -12 3 -15 5 -3 9 1 9 9 0 17 -3 19 -12 6z"/>
<path d="M3883 4974 c-17 -7 -17 -106 -1 -122 14 -14 86 -16 106 -3 9 5 12 26
10 67 l-3 59 -50 2 c-27 1 -56 0 -62 -3z"/>
<path d="M4210 4946 c0 -2 7 -6 15 -10 8 -3 15 -1 15 4 0 6 -7 10 -15 10 -8 0
-15 -2 -15 -4z"/>
<path d="M5302 4913 c3 -33 6 -38 28 -38 37 0 47 11 42 45 -4 27 -8 30 -39 30
-33 0 -34 -1 -31 -37z m55 -2 c0 -19 -5 -27 -19 -27 -13 0 -18 8 -18 26 0 18
6 26 18 27 14 1 19 -5 19 -26z"/>
<path d="M5988 4943 c6 -2 18 -2 25 0 6 3 1 5 -13 5 -14 0 -19 -2 -12 -5z"/>
<path d="M4410 4670 c-9 -6 -10 -10 -3 -10 6 0 15 5 18 10 8 12 4 12 -15 0z"/>
<path d="M4495 4670 c-3 -5 -1 -10 4 -10 6 0 11 5 11 10 0 6 -2 10 -4 10 -3 0
-8 -4 -11 -10z"/>
<path d="M3870 4635 c0 -34 1 -35 40 -35 39 0 40 1 40 35 0 34 -1 35 -40 35
-39 0 -40 -1 -40 -35z m60 12 c0 -7 -9 -18 -20 -25 -18 -11 -20 -10 -20 13 0
18 5 25 20 25 11 0 20 -6 20 -13z"/>
<path d="M5300 4636 c0 -42 7 -48 46 -37 27 7 48 41 25 41 -6 0 -11 -6 -11
-14 0 -8 -10 -13 -25 -13 -19 0 -25 5 -25 22 0 19 5 22 34 20 19 -1 33 2 30 7
-3 4 -21 8 -40 8 -32 0 -34 -2 -34 -34z"/>
<path d="M5630 4659 c0 -5 5 -7 10 -4 6 3 10 8 10 11 0 2 -4 4 -10 4 -5 0 -10
-5 -10 -11z"/>
<path d="M5706 4393 c-6 -14 -5 -15 5 -6 7 7 10 15 7 18 -3 3 -9 -2 -12 -12z"/>
<path d="M4145 4390 c-3 -5 -2 -10 4 -10 5 0 13 5 16 10 3 6 2 10 -4 10 -5 0
-13 -4 -16 -10z"/>
<path d="M4230 4389 c0 -5 5 -7 10 -4 6 3 10 8 10 11 0 2 -4 4 -10 4 -5 0 -10
-5 -10 -11z"/>
<path d="M4470 4389 c0 -5 5 -7 10 -4 6 3 10 8 10 11 0 2 -4 4 -10 4 -5 0 -10
-5 -10 -11z"/>
<path d="M4585 4390 c-3 -5 -2 -10 4 -10 5 0 13 5 16 10 3 6 2 10 -4 10 -5 0
-13 -4 -16 -10z"/>
<path d="M5555 4390 c-3 -5 -2 -10 4 -10 5 0 13 5 16 10 3 6 2 10 -4 10 -5 0
-13 -4 -16 -10z"/>
<path d="M5650 4390 c0 -5 5 -10 11 -10 5 0 7 5 4 10 -3 6 -8 10 -11 10 -2 0
-4 -4 -4 -10z"/>
<path d="M5800 4392 c0 -4 9 -8 20 -9 11 -1 20 2 20 5 0 4 -9 8 -20 9 -11 1
-20 -2 -20 -5z"/>
<path d="M5910 4389 c0 -5 5 -7 10 -4 6 3 10 8 10 11 0 2 -4 4 -10 4 -5 0 -10
-5 -10 -11z"/>
<path d="M3870 4355 c0 -34 1 -35 40 -35 39 0 40 1 40 35 0 30 -3 35 -22 34
-13 0 -17 -3 -10 -6 19 -7 14 -27 -9 -41 -20 -13 -21 -12 -17 17 3 21 0 31 -9
31 -8 0 -13 -13 -13 -35z"/>
<path d="M5300 4345 l0 -35 65 0 65 0 0 35 0 35 -65 0 -65 0 0 -35z m100 -1
c0 -16 -43 -26 -51 -12 -4 6 -12 7 -18 4 -6 -4 -11 -1 -11 6 0 9 13 13 40 13
24 0 40 -4 40 -11z"/>
<path d="M1780 4259 c0 -12 50 -108 60 -114 16 -10 12 5 -10 32 -11 14 -20 31
-20 37 -1 11 -30 55 -30 45z"/>
<path d="M3898 3963 c-39 -46 -42 -87 -7 -119 17 -16 19 -16 19 -1 0 22 9 22
25 1 18 -25 60 -11 75 26 10 24 10 36 0 60 -21 50 -82 68 -112 33z m57 -33
c-3 -10 -1 -22 6 -25 8 -6 7 -10 -2 -16 -23 -14 -26 -11 -23 29 2 46 2 44 14
37 6 -4 8 -15 5 -25z"/>
<path d="M4100 3890 c0 -5 5 -10 10 -10 6 0 10 5 10 10 0 6 -4 10 -10 10 -5 0
-10 -4 -10 -10z"/>
<path d="M4562 3608 c-7 -7 -12 -26 -12 -43 0 -17 -5 -36 -12 -43 -9 -9 -9
-12 -1 -12 7 0 15 5 18 10 4 6 15 8 25 5 30 -10 60 12 60 43 0 33 -16 52 -45
52 -12 0 -26 -5 -33 -12z m58 -13 c20 -25 8 -50 -25 -50 -21 0 -31 5 -33 18
-4 21 14 47 33 47 7 0 18 -7 25 -15z"/>
<path d="M5200 3595 c-7 -8 -13 -30 -14 -50 -1 -34 0 -35 36 -35 36 0 68 20
68 43 0 8 -3 8 -9 -1 -4 -8 -24 -14 -42 -15 -30 -2 -34 1 -37 26 -3 21 2 29
20 36 15 7 17 10 7 10 -9 1 -22 -6 -29 -14z"/>
<path d="M5840 3559 c0 -50 9 -59 55 -59 47 0 55 9 55 62 l0 49 -55 -2 -55 -2
0 -48z m80 -5 c0 -14 -5 -24 -11 -22 -6 2 -10 7 -10 11 1 4 1 14 1 22 0 8 5
15 10 15 6 0 10 -12 10 -26z"/>
<path d="M4746 3559 c-8 -42 -2 -49 45 -49 46 0 56 27 12 32 -20 2 -29 9 -31
26 -5 32 -18 27 -26 -9z"/>
<path d="M5070 3570 c0 -25 -29 -38 -41 -19 -7 11 -9 9 -9 -8 0 -12 -6 -24
-12 -26 -7 -3 6 -6 30 -6 l42 -1 0 40 c0 22 -2 40 -5 40 -3 0 -5 -9 -5 -20z"/>
<path d="M5627 3583 c-13 -12 -7 -40 11 -56 20 -19 67 -23 77 -7 3 6 -3 10
-13 10 -25 0 -46 25 -38 45 5 15 -24 22 -37 8z"/>
<path d="M9022 3568 c-8 -10 -5 -13 13 -13 18 0 21 3 13 13 -6 6 -12 12 -13
12 -1 0 -7 -6 -13 -12z"/>
<path d="M9345 3571 c-3 -5 -1 -12 5 -16 5 -3 10 1 10 9 0 18 -6 21 -15 7z"/>
<path d="M9406 3565 c-7 -18 12 -28 46 -23 35 5 29 32 -8 36 -22 2 -33 -2 -38
-13z"/>
<path d="M4400 3553 c-34 -13 -34 -43 1 -43 14 0 19 7 19 25 0 14 -1 25 -2 24
-2 0 -10 -3 -18 -6z"/>
<path d="M5425 3531 c-7 -13 4 -18 39 -17 44 1 46 26 2 26 -19 0 -37 -4 -41
-9z"/>
<path d="M4320 3520 c0 -5 9 -10 20 -10 11 0 20 5 20 10 0 6 -9 10 -20 10 -11
0 -20 -4 -20 -10z"/>
<path d="M3310 3181 c0 -12 5 -21 10 -21 6 0 10 6 10 14 0 8 -4 18 -10 21 -5
3 -10 -3 -10 -14z"/>
<path d="M3350 3174 c0 -8 5 -12 10 -9 6 4 8 11 5 16 -9 14 -15 11 -15 -7z"/>
<path d="M4267 3082 c-8 -12 19 -31 33 -22 7 4 25 4 41 0 19 -6 29 -4 32 3 3
9 8 9 18 0 17 -16 51 -17 67 -1 9 9 12 8 12 -4 0 -16 33 -20 55 -6 13 8 113 4
121 -5 4 -3 22 0 41 8 54 23 80 19 87 -11 4 -15 10 -24 13 -20 3 3 11 2 17 -3
20 -15 55 -20 50 -6 -6 15 15 31 25 19 13 -18 51 -35 51 -23 0 20 33 39 47 27
10 -8 13 -6 13 5 0 9 3 18 8 20 4 3 6 -37 4 -89 l-3 -94 106 0 106 0 -3 95
c-2 52 0 95 4 95 5 0 14 -15 22 -32 13 -30 15 -31 21 -12 6 19 14 21 81 22 44
0 74 -4 74 -10 0 -6 11 -8 25 -6 14 3 25 1 25 -5 0 -7 4 -7 12 1 19 19 75 15
83 -5 6 -17 7 -17 16 -1 5 9 16 15 23 12 7 -3 21 2 30 11 11 11 16 12 16 4 0
-7 3 -9 7 -6 3 4 12 2 20 -4 10 -9 13 -8 13 1 0 7 7 10 16 6 9 -4 23 -1 31 6
11 9 19 9 33 1 10 -7 28 -9 40 -6 16 4 27 0 36 -12 13 -17 14 -17 14 -2 0 9 1
17 3 17 1 0 16 -4 33 -9 25 -7 34 -5 53 15 18 18 20 24 8 24 -9 0 -19 -5 -22
-10 -5 -8 -11 -8 -20 0 -17 14 -445 12 -445 -1 0 -6 -8 -5 -19 1 -23 12 -94
14 -87 2 6 -11 -93 -4 -157 10 -55 12 -321 1 -351 -14 -13 -7 -16 -7 -12 1 5
8 -14 11 -61 11 -37 0 -166 2 -285 5 -119 3 -219 1 -221 -3z m583 -42 c0 -5
-4 -10 -10 -10 -5 0 -10 5 -10 10 0 6 5 10 10 10 6 0 10 -4 10 -10z"/>
<path d="M4310 3039 c0 -5 5 -7 10 -4 6 3 10 8 10 11 0 2 -4 4 -10 4 -5 0 -10
-5 -10 -11z"/>
<path d="M4742 3015 c0 -16 2 -22 5 -12 2 9 2 23 0 30 -3 6 -5 -1 -5 -18z"/>
<path d="M4620 2996 c0 -9 5 -16 10 -16 6 0 10 4 10 9 0 6 -4 13 -10 16 -5 3
-10 -1 -10 -9z"/>
<path d="M5581 2984 c0 -11 3 -14 6 -6 3 7 2 16 -1 19 -3 4 -6 -2 -5 -13z"/>
<path d="M5265 2959 c-4 -6 -5 -12 -2 -15 7 -7 37 7 37 17 0 13 -27 11 -35 -2z"/>
<path d="M5330 2960 c0 -5 5 -10 11 -10 5 0 7 5 4 10 -3 6 -8 10 -11 10 -2 0
-4 -4 -4 -10z"/>
<path d="M4800 2900 c19 -13 30 -13 30 0 0 6 -10 10 -22 10 -19 0 -20 -2 -8
-10z"/>
<path d="M5710 2900 c-18 -12 -2 -12 25 0 13 6 15 9 5 9 -8 0 -22 -4 -30 -9z"/>
<path d="M4885 2841 c-12 -20 21 -23 158 -15 l142 8 -85 7 c-126 10 -208 10
-215 0z"/>
<path d="M5093 2393 c9 -2 23 -2 30 0 6 3 -1 5 -18 5 -16 0 -22 -2 -12 -5z"/>
<path d="M4925 2030 c-38 -4 -110 -17 -160 -28 -127 -29 -191 -43 -525 -112
-162 -33 -358 -74 -435 -91 -178 -38 -439 -92 -820 -169 -302 -61 -529 -108
-663 -136 -39 -8 -72 -19 -72 -23 0 -5 12 -6 28 -3 165 29 1634 326 1767 357
55 13 208 42 340 64 132 22 303 52 380 66 195 35 374 42 550 21 189 -22 767
-139 1477 -300 331 -75 859 -189 998 -216 90 -17 139 -16 92 1 -21 8 -55 16
-297 70 -49 11 -108 24 -130 30 -62 14 -275 60 -325 69 -62 12 -918 198 -1080
235 -30 7 -129 29 -220 49 -91 20 -214 47 -275 62 -60 14 -148 32 -195 40
-105 18 -341 26 -435 14z"/>
<path d="M2044 1449 c17 -4 52 -5 80 0 49 8 48 9 -29 9 -61 0 -73 -2 -51 -9z"/>
<path d="M7965 1436 c34 -17 131 -21 140 -6 4 6 -17 10 -57 10 -35 0 -74 3
-88 5 -22 5 -21 3 5 -9z"/>
<path d="M4468 1125 c-3 -14 -1 -28 3 -31 5 -3 9 9 9 25 0 38 -6 40 -12 6z"/>
<path d="M5201 1138 c0 -7 4 -22 9 -33 8 -18 9 -17 9 7 1 15 -3 30 -9 33 -5 3
-10 0 -9 -7z"/>
<path d="M5951 1124 c0 -11 3 -14 6 -6 3 7 2 16 -1 19 -3 4 -6 -2 -5 -13z"/>
<path d="M3733 1115 c-3 -9 -3 -18 -1 -21 3 -3 8 4 11 16 6 23 -1 27 -10 5z"/>
<path d="M5580 1110 c6 -11 12 -20 14 -20 2 0 2 9 -1 20 -3 11 -9 20 -15 20
-5 0 -4 -9 2 -20z"/>
<path d="M4841 1104 c0 -11 3 -14 6 -6 3 7 2 16 -1 19 -3 4 -6 -2 -5 -13z"/>
<path d="M3360 1099 c0 -5 5 -7 10 -4 6 3 10 8 10 11 0 2 -4 4 -10 4 -5 0 -10
-5 -10 -11z"/>
<path d="M2777 1051 c-4 -17 -3 -21 5 -13 5 5 8 16 6 23 -3 8 -7 3 -11 -10z"/>
<path d="M5030 1038 c0 -21 5 -38 10 -38 13 0 13 40 0 60 -7 11 -10 5 -10 -22z"/>
<path d="M6175 1050 c8 -27 22 -46 29 -39 3 3 -4 18 -15 34 -19 28 -20 28 -14
5z"/>
<path d="M3151 1044 c0 -11 3 -14 6 -6 3 7 2 16 -1 19 -3 4 -6 -2 -5 -13z"/>
<path d="M3898 1054 c-5 -4 -8 -19 -8 -33 0 -18 3 -22 11 -14 6 6 9 21 7 33
-1 12 -6 18 -10 14z"/>
<path d="M4650 1031 c0 -17 5 -31 10 -31 6 0 10 11 10 24 0 14 -4 28 -10 31
-6 4 -10 -7 -10 -24z"/>
<path d="M3520 1041 c0 -5 -3 -18 -6 -28 -5 -16 -4 -16 10 1 18 23 20 36 6 36
-5 0 -10 -4 -10 -9z"/>
<path d="M4270 1025 c0 -14 5 -25 10 -25 6 0 10 11 10 25 0 14 -4 25 -10 25
-5 0 -10 -11 -10 -25z"/>
<path d="M5411 1043 c0 -5 4 -17 9 -28 8 -18 9 -17 9 8 1 15 -3 27 -9 27 -5 0
-10 -3 -9 -7z"/>
<path d="M5800 1019 c7 -11 14 -19 16 -16 7 7 -7 37 -17 37 -6 0 -5 -9 1 -21z"/>
<path d="M4363 935 c0 -22 2 -30 4 -17 2 12 2 30 0 40 -3 9 -5 -1 -4 -23z"/>
<path d="M3201 944 c0 -11 3 -14 6 -6 3 7 2 16 -1 19 -3 4 -6 -2 -5 -13z"/>
<path d="M3585 946 c-3 -9 -7 -23 -10 -31 -2 -8 0 -15 5 -15 11 0 25 48 16 57
-3 3 -8 -2 -11 -11z"/>
<path d="M4750 931 c0 -17 5 -31 10 -31 6 0 10 11 10 24 0 14 -4 28 -10 31 -6
4 -10 -7 -10 -24z"/>
<path d="M5140 936 c0 -14 5 -28 11 -31 15 -10 18 -4 12 28 -7 34 -23 36 -23
3z"/>
<path d="M5930 949 c0 -8 7 -24 15 -35 11 -15 14 -16 15 -3 0 8 -7 24 -15 35
-11 15 -14 16 -15 3z"/>
<path d="M3971 923 c0 -25 1 -26 9 -8 12 27 12 35 0 35 -5 0 -10 -12 -9 -27z"/>
<path d="M5530 942 c0 -5 7 -17 15 -28 15 -19 20 -8 9 20 -6 17 -24 22 -24 8z"/>
<path d="M2806 924 c-4 -9 -4 -19 -1 -22 2 -3 7 3 11 12 4 9 4 19 1 22 -2 3
-7 -3 -11 -12z"/>
<path d="M8680 870 c0 -5 7 -10 16 -10 8 0 12 5 9 10 -3 6 -10 10 -16 10 -5 0
-9 -4 -9 -10z"/>
<path d="M8872 873 c-128 -3 -153 -6 -149 -18 8 -18 -11 -24 -48 -13 -16 4
-39 7 -50 7 -20 -1 -20 -1 0 -6 11 -3 25 -9 31 -14 24 -19 159 -26 384 -18
129 4 320 8 424 8 177 1 241 7 133 12 -56 3 -80 15 -52 25 18 7 18 8 -1 15
-18 7 -347 8 -672 2z"/>
<path d="M1770 860 c0 -5 5 -10 10 -10 6 0 10 5 10 10 0 6 -4 10 -10 10 -5 0
-10 -4 -10 -10z"/>
<path d="M2160 844 c0 -8 5 -12 10 -9 6 3 10 10 10 16 0 5 -4 9 -10 9 -5 0
-10 -7 -10 -16z"/>
<path d="M2560 845 c0 -8 2 -15 4 -15 2 0 6 7 10 15 3 8 1 15 -4 15 -6 0 -10
-7 -10 -15z"/>
<path d="M2952 828 c-10 -30 -10 -31 3 -14 13 17 21 46 12 46 -1 0 -8 -15 -15
-32z"/>
<path d="M3350 848 c0 -7 -3 -24 -6 -38 -5 -24 -5 -24 10 -6 18 22 21 56 6 56
-5 0 -10 -6 -10 -12z"/>
<path d="M3757 853 c-11 -20 -17 -63 -8 -63 10 0 26 58 18 66 -3 3 -7 2 -10
-3z"/>
<path d="M4550 831 c0 -17 5 -33 10 -36 6 -4 10 8 10 29 0 20 -4 36 -10 36 -5
0 -10 -13 -10 -29z"/>
<path d="M4959 850 c-7 -20 5 -68 14 -54 3 6 3 24 -2 39 -5 19 -9 24 -12 15z"/>
<path d="M5771 838 c-1 -15 4 -30 9 -33 12 -7 12 12 0 40 -8 18 -9 17 -9 -7z"/>
<path d="M6175 838 c8 -27 35 -58 35 -41 0 19 -22 63 -32 63 -5 0 -6 -10 -3
-22z"/>
<path d="M4158 844 c-5 -4 -8 -19 -8 -33 0 -18 3 -22 11 -14 6 6 9 21 7 33 -1
12 -6 18 -10 14z"/>
<path d="M5362 826 c2 -16 9 -31 16 -34 17 -5 15 20 -3 44 -15 18 -15 18 -13
-10z"/>
<path d="M2120 770 c0 -5 5 -10 10 -10 6 0 10 5 10 10 0 6 -4 10 -10 10 -5 0
-10 -4 -10 -10z"/>
<path d="M6943 753 c0 -21 14 -40 39 -54 16 -9 17 -7 6 18 -12 27 -32 53 -41
53 -2 0 -4 -8 -4 -17z"/>
<path d="M1160 750 c0 -5 7 -10 15 -10 8 0 15 5 15 10 0 6 -7 10 -15 10 -8 0
-15 -4 -15 -10z"/>
<path d="M1570 750 c0 -5 4 -10 9 -10 6 0 13 5 16 10 3 6 -1 10 -9 10 -9 0
-16 -4 -16 -10z"/>
<path d="M1980 745 c0 -9 5 -15 11 -13 6 2 11 8 11 13 0 5 -5 11 -11 13 -6 2
-11 -4 -11 -13z"/>
<path d="M6538 736 c7 -29 24 -49 31 -37 4 6 78 12 171 15 159 6 204 15 170
36 -8 5 -26 10 -40 10 -20 0 -22 -2 -10 -11 11 -8 6 -9 -20 -4 -19 3 -44 6
-55 5 -46 0 -154 2 -201 4 -48 3 -51 2 -46 -18z"/>
<path d="M2386 735 c4 -8 10 -12 15 -9 14 8 10 24 -6 24 -9 0 -12 -6 -9 -15z"/>
<path d="M4440 709 c0 -52 24 -48 28 4 2 28 -1 37 -12 37 -12 0 -16 -11 -16
-41z"/>
<path d="M4860 723 c0 -31 15 -60 23 -47 7 13 -4 74 -14 74 -5 0 -9 -12 -9
-27z"/>
<path d="M5280 733 c0 -28 10 -53 21 -53 11 0 1 50 -12 65 -5 5 -9 0 -9 -12z"/>
<path d="M5700 730 c0 -25 10 -50 21 -50 5 0 9 7 9 15 0 9 9 15 21 15 32 0 17
24 -19 31 -27 5 -32 3 -32 -11z"/>
<path d="M6029 746 c-2 -3 -54 -7 -114 -9 -130 -6 -124 -5 -105 -17 9 -6 71
-10 147 -8 107 1 136 -1 150 -14 40 -34 47 -33 39 2 -3 19 -12 38 -19 42 -13
8 -91 11 -98 4z"/>
<path d="M8875 740 c-4 -6 8 -10 29 -10 20 0 36 5 36 10 0 6 -13 10 -29 10
-17 0 -33 -4 -36 -10z"/>
<path d="M8978 743 c12 -2 32 -2 45 0 12 2 2 4 -23 4 -25 0 -35 -2 -22 -4z"/>
<path d="M8320 724 c0 -36 42 -85 135 -162 110 -89 188 -129 280 -142 83 -12
616 -3 692 11 60 12 94 35 116 81 14 30 14 34 0 50 -9 10 -25 18 -36 18 -10 0
-42 7 -70 15 -32 9 -118 16 -225 19 -148 4 -173 3 -168 -10 3 -8 1 -14 -3 -14
-5 0 -11 5 -13 11 -3 8 -15 8 -43 1 -22 -6 -78 -13 -125 -17 -46 -4 -93 -11
-104 -17 -18 -10 -18 -7 -12 31 8 52 -8 54 -25 4 -6 -21 -20 -50 -31 -65 -16
-23 -24 -26 -51 -21 -58 10 -124 54 -202 134 -43 43 -82 76 -87 73 -6 -4 -14
0 -19 7 -7 11 -9 9 -9 -7z"/>
<path d="M1705 701 c-8 -14 4 -17 54 -16 26 0 46 5 48 13 6 14 -92 18 -102 3z"/>
<path d="M8741 684 c0 -11 3 -14 6 -6 3 7 2 16 -1 19 -3 4 -6 -2 -5 -13z"/>
<path d="M1909 621 c-15 -17 27 -18 875 -24 1328 -10 1665 -9 1641 6 -15 9
-261 13 -1045 15 -768 2 -1026 6 -1032 15 -5 8 -9 7 -13 -3 -4 -13 -35 -14
-198 -12 -105 2 -193 8 -195 13 -5 13 -15 10 -33 -10z"/>
<path d="M673 623 c-48 -19 27 -23 394 -23 294 0 404 3 396 11 -13 13 -367 16
-397 4 -11 -5 -26 -3 -37 3 -19 12 -330 16 -356 5z"/>
<path d="M1488 613 c-8 -10 31 -13 193 -13 255 0 256 17 1 22 -138 2 -186 0
-194 -9z"/>
<path d="M7430 618 c0 -12 36 -16 218 -21 316 -10 578 -9 567 2 -6 6 -171 11
-385 12 -223 1 -380 6 -387 12 -9 7 -13 5 -13 -5z"/>
<path d="M4493 612 c-13 -2 -23 -8 -23 -13 0 -5 80 -9 193 -9 129 1 187 4 175
10 -15 9 -296 19 -345 12z"/>
<path d="M5350 610 c-10 -6 49 -10 164 -10 99 0 177 3 173 6 -10 10 -321 14
-337 4z"/>
<path d="M5920 610 l-165 -6 194 -2 c107 -1 192 0 190 2 -11 9 -68 11 -219 6z"/>
<path d="M6208 608 c-7 -4 70 -8 180 -7 114 0 190 4 187 10 -8 11 -349 9 -367
-3z"/>
<path d="M6635 610 c-4 -7 60 -10 184 -10 121 0 191 4 191 10 0 6 -68 10 -184
10 -113 0 -187 -4 -191 -10z"/>
<path d="M7075 610 c-4 -7 53 -10 165 -10 112 0 169 3 165 10 -4 6 -70 10
-165 10 -95 0 -161 -4 -165 -10z"/>
<path d="M4900 599 c0 -12 345 -8 357 5 3 3 -75 6 -175 6 -128 0 -182 -3 -182
-11z"/>
<path d="M8240 600 c0 -5 5 -10 11 -10 5 0 7 5 4 10 -3 6 -8 10 -11 10 -2 0
-4 -4 -4 -10z"/>
<path d="M633 536 c4 -29 2 -46 -5 -48 -7 -3 -5 -15 6 -37 35 -66 -287 -61
3827 -61 3442 0 3744 1 3775 16 19 9 41 29 49 45 l15 28 -2088 1 c-1148 1
-2193 3 -2322 5 -406 5 -743 14 -790 22 -25 4 -65 5 -90 4 -58 -4 -75 -4 -190
4 -52 4 -347 9 -654 11 -308 2 -561 6 -564 9 -14 13 22 16 244 17 141 0 219 4
189 8 -27 4 -350 7 -717 6 -368 -1 -668 2 -668 7 0 4 -5 7 -11 7 -8 0 -10 -14
-6 -44z"/>
<path d="M2290 560 c-11 -7 -7 -10 18 -10 20 0 31 4 27 10 -8 13 -26 13 -45 0z"/>
<path d="M2485 559 c-30 -3 7 -6 90 -7 77 0 136 1 130 3 -20 7 -172 10 -220 4z"/>
<path d="M2368 553 c6 -2 18 -2 25 0 6 3 1 5 -13 5 -14 0 -19 -2 -12 -5z"/>
</g>
</svg>
